<?xml version="1.0" standalone="no"?>
<!DOCTYPE svg PUBLIC "-//W3C//DTD SVG 20010904//EN"
 "http://www.w3.org/TR/2001/REC-SVG-20010904/DTD/svg10.dtd">
<svg version="1.0" xmlns="http://www.w3.org/2000/svg"
 width="1000.000000pt" height="1000.000000pt" viewBox="0 0 1000.000000 1000.000000"
 preserveAspectRatio="xMidYMid meet">

<g transform="translate(0.000000,1000.000000) scale(0.100000,-0.100000)"
fill="#000000" stroke="none">
<path d="M4785 9933 c-187 -10 -461 -35 -555 -52 -223 -39 -410 -78 -520 -108
-844 -227 -1591 -652 -2209 -1258 -243 -238 -475 -517 -658 -790 -443 -663
-736 -1477 -803 -2230 -6 -66 -15 -154 -19 -195 -14 -116 -11 -579 4 -730 22
-222 36 -331 50 -410 8 -41 19 -104 25 -140 35 -196 132 -546 212 -759 320
-856 800 -1530 1528 -2142 357 -300 909 -621 1365 -791 268 -101 638 -204 860
-242 391 -65 462 -71 915 -71 486 0 622 13 1025 95 387 80 872 249 1190 415
38 20 95 39 130 45 213 34 513 223 583 368 10 21 60 67 131 123 332 257 676
612 933 960 73 99 228 326 228 335 0 1 23 40 52 86 67 108 230 429 297 586
350 823 472 1746 346 2622 -31 212 -35 236 -50 310 -175 825 -534 1568 -1063
2200 -120 143 -394 423 -527 539 -489 425 -985 718 -1594 943 -206 76 -538
166 -776 212 -325 62 -788 95 -1100 79z m605 -63 c627 -53 1217 -219 1785
-505 292 -147 641 -366 775 -486 19 -17 27 -26 18 -19 -9 6 -22 9 -28 5 -6 -4
8 -21 35 -41 25 -19 45 -37 45 -40 0 -3 -44 28 -97 69 -654 494 -1437 820
-2248 936 -270 39 -384 46 -710 45 -407 0 -646 -25 -1022 -105 -657 -139
-1350 -452 -1868 -842 -44 -34 -75 -54 -69 -46 6 8 14 23 17 34 7 20 7 20 -8
1 -8 -11 -15 -16 -15 -12 0 4 -19 -7 -42 -26 -23 -18 -39 -28 -35 -22 9 16
170 136 302 227 366 251 819 471 1255 612 248 80 577 153 855 191 307 41 727
51 1055 24z m2680 -1087 c0 -2 -18 10 -40 27 -22 17 -40 34 -40 37 0 2 18 -10
40 -27 22 -17 40 -34 40 -37z m-6080 43 c0 -2 -8 -10 -17 -17 -16 -13 -17 -12
-4 4 13 16 21 21 21 13z m-80 -19 c0 -2 -10 -12 -22 -23 l-23 -19 19 23 c18
21 26 27 26 19z m6191 -44 c13 -16 12 -17 -3 -4 -10 7 -18 15 -18 17 0 8 8 3
21 -13z m-3091 -8 c395 -63 706 -280 828 -578 16 -40 32 -90 35 -112 5 -34 5
-36 -4 -14 l-10 26 -1182 -5 c-851 -3 -1186 -8 -1196 -16 -19 -15 22 65 72
139 57 85 218 241 317 307 202 134 473 235 700 261 94 11 352 6 440 -8z m374
-1508 c160 -76 281 -241 343 -468 26 -93 25 -366 -1 -464 -22 -84 -72 -196
-115 -258 l-31 -45 43 -26 c209 -122 271 -334 158 -543 l-29 -52 45 -163 c166
-604 466 -1383 769 -1996 80 -161 169 -347 198 -415 137 -313 253 -678 312
-979 l17 -88 56 0 c31 -1 85 -7 121 -15 36 -7 66 -12 67 -11 10 9 54 178 67
256 20 119 21 352 1 484 -34 223 -111 454 -230 683 -102 197 -183 312 -356
507 -80 90 -98 123 -72 133 19 8 138 -110 246 -242 291 -359 505 -819 573
-1231 25 -149 25 -441 1 -573 -10 -51 -17 -94 -15 -96 2 -1 35 -16 73 -34 39
-18 89 -44 113 -57 l43 -26 -59 -44 -60 -44 -100 40 c-151 61 -241 82 -375 87
-152 7 -195 -4 -264 -70 -38 -36 -60 -68 -82 -120 -39 -95 -64 -239 -59 -350
l3 -89 -60 -25 c-33 -13 -148 -56 -255 -95 -1060 -380 -2243 -339 -3295 114
-240 103 -393 184 -638 337 l-138 86 6 70 c35 396 127 786 271 1152 25 62 108
254 185 425 471 1048 647 1577 698 2102 l10 98 -59 55 c-122 112 -188 255
-177 379 11 113 64 185 229 309 l66 50 -49 65 c-140 186 -191 494 -124 755 42
162 156 314 264 350 156 52 321 -45 421 -248 56 -115 80 -217 87 -370 6 -125
7 -128 27 -123 94 27 248 29 349 6 l37 -8 0 124 c0 248 68 438 208 586 63 67
128 111 203 139 43 15 74 19 154 17 92 -3 106 -6 179 -41z m1663 -2694 c93
-109 321 -422 547 -753 49 -71 52 -78 20 -43 l-39 42 -91 3 -92 3 9 -23 c5
-13 14 -33 20 -45 6 -12 7 -17 2 -12 -11 11 -259 477 -343 645 -45 89 -100
219 -100 235 0 17 24 -2 67 -52z m-4221 -300 c-19 -82 -170 -355 -386 -702
-122 -195 -164 -256 -125 -181 l16 30 -95 0 -94 0 -22 -35 c-24 -38 -38 -48
-19 -13 21 40 149 237 211 326 154 221 345 459 441 550 63 59 82 66 73 25z
m-166 -678 c0 -25 -46 -128 -155 -345 -119 -239 -179 -374 -229 -519 -153
-442 -166 -864 -35 -1185 16 -39 29 -72 29 -74 0 -4 -185 139 -234 181 l-39
33 1 159 c1 394 111 764 385 1298 109 212 255 467 268 467 5 0 9 -7 9 -15z
m-370 -265 c-6 -11 -13 -20 -16 -20 -2 0 0 9 6 20 6 11 13 20 16 20 2 0 0 -9
-6 -20z m-210 -10 c-6 -11 -13 -20 -16 -20 -2 0 0 9 6 20 6 11 13 20 16 20 2
0 0 -9 -6 -20z m5139 -1846 c78 -18 291 -121 341 -164 34 -30 35 -31 4 -13
-29 17 -56 18 -338 13 l-306 -5 0 23 c0 57 55 129 115 150 44 15 110 14 184
-4z"/>
<path d="M7905 8890 c-3 -5 1 -13 10 -16 22 -9 29 1 11 15 -10 8 -16 9 -21 1z"/>
<path d="M5057 6820 c-110 -69 -188 -285 -163 -451 6 -44 7 -44 122 -113 64
-38 152 -84 197 -102 l81 -32 23 31 c94 128 110 394 32 550 -25 49 -82 113
-121 133 -47 24 -118 18 -171 -16z m97 -45 c32 -15 77 -79 75 -106 0 -10 -2
-11 -6 -1 -7 17 -233 17 -233 0 0 -6 -3 -9 -6 -6 -9 9 21 60 53 89 45 42 68
47 117 24z"/>
<path d="M3754 6750 c-31 -12 -81 -78 -99 -129 -36 -102 -28 -280 16 -381 25
-57 66 -117 86 -124 9 -4 42 19 91 65 43 39 94 83 114 97 l38 27 0 85 c0 232
-122 410 -246 360z m90 -62 c19 -18 37 -42 40 -53 5 -19 1 -20 -84 -20 -98 0
-104 4 -73 55 16 28 45 48 71 49 7 1 28 -14 46 -31z"/>
</g>
</svg>
